<?xml version="1.0" encoding="UTF-8"?>
<svg width="2800px" height="614px" viewBox="0 0 2800 614" version="1.1" xmlns="http://www.w3.org/2000/svg" xmlns:xlink="http://www.w3.org/1999/xlink">
    <title>edgeware_logo</title>
    <g id="edgeware_logo" stroke="none" stroke-width="1" fill="none" fill-rule="evenodd">
        <path d="M1012.06641,486 L1012.06641,413.734375 L860.210938,413.734375 L860.210938,341.957031 L1003.0332,341.957031 L1003.0332,276.039062 L860.210938,276.039062 L860.210938,205.970703 L1012.06641,205.970703 L1012.06641,133.705078 L770.611328,133.705078 L770.611328,486 L1012.06641,486 Z M1121.49805,486 L1164.22266,398.353516 L1165.93164,398.353516 L1209.87695,486 L1303.38281,486 L1223.79297,351.966797 L1303.62695,220.130859 L1210.12109,220.130859 L1171.05859,305.091797 L1169.34961,305.091797 L1129.55469,220.130859 L1031.89844,220.130859 L1111.48828,353.919922 L1031.6543,486 L1121.49805,486 Z M1406.71094,571.9375 L1406.71094,440.589844 L1408.41992,440.589844 C1421.35938,471.351562 1450.65625,489.90625 1489.71875,489.90625 C1555.88086,489.90625 1594.69922,439.857422 1594.69922,353.1875 C1594.69922,266.273438 1555.63672,216.224609 1488.49805,216.224609 C1450.16797,216.224609 1421.35938,235.511719 1407.93164,267.494141 L1406.22266,267.494141 L1406.22266,220.130859 L1320.04102,220.130859 L1320.04102,571.9375 L1406.71094,571.9375 Z M1456.27148,422.279297 C1425.75391,422.279297 1406.4668,395.423828 1406.22266,353.1875 C1406.4668,311.195312 1425.99805,283.851562 1456.27148,283.851562 C1486.78906,283.851562 1506.32031,310.951172 1506.32031,353.1875 C1506.32031,395.423828 1487.0332,422.279297 1456.27148,422.279297 Z M1708.52539,486 L1708.52539,133.705078 L1621.85547,133.705078 L1621.85547,486 L1708.52539,486 Z M1871.42383,492.347656 C1955.16406,492.347656 2007.41016,441.810547 2007.41016,352.943359 C2007.41016,265.785156 1954.43164,213.783203 1871.42383,213.783203 C1788.9043,213.783203 1735.4375,266.029297 1735.4375,352.943359 C1735.4375,441.566406 1787.68359,492.347656 1871.42383,492.347656 Z M1871.42383,428.871094 C1841.63867,428.871094 1823.32812,401.771484 1823.32812,353.1875 C1823.32812,305.335938 1842.12695,277.259766 1871.42383,277.259766 C1900.96484,277.259766 1919.76367,305.335938 1919.76367,353.1875 C1919.76367,401.771484 1900.96484,428.871094 1871.42383,428.871094 Z M2119.52734,486 L2119.52734,346.107422 C2119.52734,308.998047 2139.30273,288.490234 2175.67969,288.490234 C2185.93359,288.490234 2195.94336,290.443359 2203.26758,293.373047 L2203.26758,219.642578 C2197.4082,217.445312 2190.08398,216.224609 2181.29492,216.224609 C2150.04492,216.224609 2128.56055,234.535156 2118.79492,270.423828 L2117.08594,270.423828 L2117.08594,220.130859 L2032.85742,220.130859 L2032.85742,486 L2119.52734,486 Z M2341.99609,492.347656 C2411.57617,492.347656 2460.4043,456.947266 2468.70508,402.015625 L2390.58008,402.015625 C2384.47656,420.082031 2366.41016,431.068359 2343.2168,431.068359 C2311.9668,431.068359 2290.72656,409.095703 2290.72656,377.357422 L2290.72656,371.986328 L2470.16992,371.986328 L2470.16992,347.572266 C2470.16992,266.273438 2419.14453,213.783203 2339.06641,213.783203 C2257.76758,213.783203 2206.74219,268.470703 2206.74219,354.408203 C2206.74219,440.345703 2257.2793,492.347656 2341.99609,492.347656 Z M2388.62695,322.669922 L2291.94727,322.669922 C2294.14453,295.082031 2313.91992,275.306641 2340.53125,275.306641 C2367.875,275.306641 2387.16211,294.349609 2388.62695,322.669922 Z M2582.28711,486 L2582.28711,346.107422 C2582.28711,308.998047 2602.0625,288.490234 2638.43945,288.490234 C2648.69336,288.490234 2658.70312,290.443359 2666.02734,293.373047 L2666.02734,219.642578 C2660.16797,217.445312 2652.84375,216.224609 2644.05469,216.224609 C2612.80469,216.224609 2591.32031,234.535156 2581.55469,270.423828 L2579.8457,270.423828 L2579.8457,220.130859 L2495.61719,220.130859 L2495.61719,486 L2582.28711,486 Z" id="Explorer" fill="#181B1D" fill-rule="nonzero"></path>
        <path d="M307,0 C476.551418,0 614,137.448582 614,307 C614,476.551418 476.551418,614 307,614 C137.448582,614 0,476.551418 0,307 C0,137.448582 137.448582,0 307,0 Z M307.45198,323.230769 C307.236086,323.230769 304.429459,327.753846 301.29899,333.138462 C298.940344,337.175846 296.319019,341.663288 293.651726,346.232594 L292.95501,347.426202 C292.606273,348.023692 292.257075,348.622031 291.907896,349.2204 L290.860898,351.014785 L290.512423,351.612107 L290.512423,351.612107 L289.816902,352.804453 C289.637187,353.112569 289.457734,353.420256 289.278612,353.727401 L288.742298,354.647091 C288.474703,355.106009 288.208,355.56345 287.942413,356.019032 L287.412795,356.927604 C280.72486,368.401914 274.850049,378.519493 273.448615,381.061538 C270.96583,385.369231 251.75123,418.430769 240.632669,437.384615 C237.070412,443.630769 233.724049,449.446154 233.400207,450.415385 C232.752524,452.030769 229.83795,452.246154 208.140564,452.353846 C194.908968,452.353846 183.681491,452.564308 183.216601,452.88121 L183.204763,452.892308 C182.772974,453.215385 186.227284,459.461538 201.123997,484.984615 L202.851152,488 L252.722754,488 L277.87445,444.6 C280.520236,440.078 283.271237,435.369391 286.037866,430.629291 L286.911953,429.131552 C287.203419,428.632077 287.494953,428.132434 287.786452,427.632804 L289.534178,424.636628 L289.922531,423.970713 L289.922531,423.970713 L290.698142,422.640604 C290.9564,422.19768 291.214352,421.755245 291.471926,421.313425 L292.24344,419.989944 C301.871334,403.47272 310.863507,388.001454 315.332125,380.307692 C315.565592,379.901968 315.797615,379.498209 316.028009,379.096741 L316.486571,378.296953 C322.646394,367.543649 327.530158,358.61771 327.530158,357.907692 C327.530158,357.153846 326.342739,354.784615 324.939425,352.523077 C323.640061,350.528775 319.749372,343.918033 316.0095,337.392781 L315.561615,336.610462 C315.412678,336.350026 315.264159,336.090028 315.116231,335.830769 C311.122185,328.938462 307.667875,323.230769 307.45198,323.230769 Z M339.728191,372.984615 C338.864613,374.394406 337.144595,377.39911 335.398624,380.548807 L334.744291,381.733907 C334.30942,382.52473 333.879415,383.313287 333.467253,384.076923 C332.522716,385.782051 331.353288,387.917201 330.154187,390.10844 L329.432727,391.426923 C327.988933,394.065385 326.558633,396.676923 325.479161,398.615385 C322.240746,404.323077 321.70101,406.046154 322.672534,407.769231 C323.275149,408.916962 328.54858,418.524425 334.2599,428.877731 L334.70575,429.685856 C335.077907,430.360327 335.451446,431.037098 335.825209,431.714056 L336.497974,432.932329 C336.572697,433.067613 336.647401,433.202855 336.722077,433.338036 L337.400849,434.566523 L337.677094,435.066339 L337.677094,435.066339 L338.227606,436.062126 C342.436477,443.673887 346.350861,450.72044 348.256019,454.076923 C349.44151,456.205769 352.3629,461.567308 355.537441,467.32984 L356.003643,468.175671 C356.081588,468.317011 356.159639,468.458507 356.237777,468.600118 L356.707464,469.450839 C356.864256,469.734655 357.02122,470.018603 357.178184,470.302355 L357.648904,471.152693 C358.11928,472.001786 358.588107,472.846154 359.050738,473.676923 L366.930883,488 L388.109931,487.999089 C398.820671,487.977026 407.411079,487.557744 407.411079,487.138462 C407.411079,486.707692 406.979291,485.846154 406.439555,485.307692 C406.007766,484.661538 403.848822,481.107692 401.797826,477.230769 C401.334697,476.355335 400.838545,475.430481 400.334225,474.499605 L399.683269,473.302861 C398.163004,470.518658 396.665111,467.847643 395.86073,466.461538 C394.673311,464.415385 392.082578,459.784615 390.139529,456.230769 C389.392202,454.863905 388.517127,453.27401 387.637139,451.681664 L387.109539,450.727727 C385.881683,448.509422 384.692348,446.372781 383.878592,444.923077 C382.643676,442.553846 375.139187,429.009428 366.440972,413.243315 L365.846121,412.165015 C364.85182,410.362462 363.843593,408.533846 362.828889,406.692308 C352.681853,388.276923 343.830184,372.446154 343.182501,371.369231 C341.887134,369.538462 341.67124,369.646154 339.728191,372.984615 Z M354.516956,362.323077 L357.647424,367.815385 C359.273018,370.665742 364.203083,379.503927 369.544806,389.120842 L370.080243,390.084936 C370.437973,390.729139 370.797104,391.376031 371.156779,392.024069 L371.696593,392.996793 L371.696593,392.996793 L372.236579,393.970078 C372.326556,394.132274 372.416512,394.294446 372.506436,394.456569 L373.214908,395.734083 C378.401783,405.08864 383.360445,414.067077 385.4978,418 C386.184344,419.257846 386.870542,420.513452 387.55538,421.765013 L388.581489,423.639093 C404.637225,452.945077 419.660927,479.518154 420.47269,479.923077 C421.012426,480.353846 421.768056,479.815385 422.199845,478.846154 C422.503446,477.9375 426.127689,471.255108 430.315254,463.679443 L430.735787,462.91908 C430.876522,462.664754 431.017781,462.409615 431.159462,462.153846 C435.693244,453.969231 439.795237,446.538462 440.119078,445.569231 C440.550867,444.6 438.176029,439.323077 434.505824,432.861538 C433.720754,431.466434 432.896653,429.993452 432.070271,428.512127 L431.574462,427.622886 C428.931824,422.880865 426.341091,418.195804 425.006472,415.846154 C423.624748,413.261538 419.479575,405.714462 415.058059,397.671138 L414.546799,396.741115 C414.20533,396.119969 413.862792,395.496904 413.520317,394.873952 L413.006793,393.939862 L412.494212,393.007466 C412.238299,392.541946 411.983058,392.077633 411.728967,391.615385 L411.2182,390.693852 C410.882698,390.088278 410.546905,389.481682 410.211762,388.875824 L409.709651,387.967813 C409.626086,387.816644 409.542591,387.665576 409.459181,387.514637 L408.959853,386.610767 C404.311139,378.193192 400.020094,370.352254 398.667357,367.923077 L395.644836,362.538462 L375.134869,362.430769 L354.516956,362.323077 Z M294.930106,309.230769 L253.478385,309.230769 L243.871085,326.138462 C243.696976,326.440695 243.522531,326.743937 243.347894,327.047916 L242.82355,327.961795 C242.648674,328.266978 242.47375,328.572627 242.298924,328.878472 L241.774885,329.79632 C241.687642,329.949302 241.600461,330.102265 241.513357,330.255175 L240.991829,331.17173 C236.569345,338.952445 232.446093,346.419355 231.025369,349.076923 C229.406161,352.307692 227.13927,356.184615 226.059798,357.692308 C225.212298,359.007529 222.475453,363.600808 219.78405,368.469584 L219.390735,369.183705 L219.194742,369.541588 L219.194742,369.541588 L218.804927,370.257689 C218.740255,370.376989 218.675751,370.496236 218.611442,370.615385 C218.402744,370.988718 218.192607,371.365402 217.981766,371.743936 L217.559364,372.503028 L217.347868,372.883592 L217.347868,372.883592 L216.925104,373.645088 C214.321007,378.338386 211.796376,382.932991 210.731297,384.615385 C208.402627,388.650367 203.847484,396.695877 199.08468,405.161662 L198.488394,406.221814 C198.289369,406.575755 198.09013,406.930165 197.890821,407.284786 L196.753569,409.309214 C193.976718,414.254651 191.24062,419.144838 188.941824,423.27455 L188.32602,424.38145 C185.102734,430.178708 182.880922,434.231385 182.880922,434.369231 C182.880922,434.692308 192.056433,434.907692 203.282941,435.015385 L223.792907,435.015385 L248.836655,390.753846 C250.080207,388.553692 251.342121,386.322135 252.613189,384.075191 L253.461823,382.575124 C253.745085,382.074459 254.028699,381.57321 254.312563,381.071553 L255.164803,379.565531 C255.449066,379.063232 255.733478,378.560701 256.017937,378.058113 L256.871359,376.550355 C257.298041,375.796566 257.724603,375.043044 258.150704,374.290384 L259.002193,372.786386 C269.777374,353.754732 280.111116,335.529231 284.459229,327.753846 L294.930106,309.230769 Z M168.847787,315.8 L103,315.8 L104.187419,318.169231 C105.384382,320.373792 108.564357,325.653576 111.935442,331.118241 L112.429928,331.918932 L112.429928,331.918932 L112.925894,332.720251 L112.925894,332.720251 L113.433363,333.538331 C113.517888,333.674437 113.602366,333.810393 113.686772,333.946154 L114.192103,334.758021 C117.972151,340.824092 121.491124,346.313584 122.2146,347.138462 C123.66541,348.896 127.105903,349.065551 164.434671,349.076303 L214.83329,349.076923 L222.821382,336.046154 L223.52056,334.924687 C223.675895,334.675829 223.831124,334.427326 223.98609,334.179416 L224.450039,333.437703 C227.248265,328.967118 229.907666,324.769702 231.482286,322.261037 L231.727972,321.869252 C231.767285,321.806497 231.805768,321.74503 231.843403,321.684882 L232.058882,321.340021 C232.366381,320.847114 232.602133,320.465444 232.752524,320.215385 C233.724049,318.6 234.588212,316.984615 234.588212,316.553846 C234.692353,316.136 206.764411,315.819482 172.084278,315.800866 L169.93069,315.800097 C169.570385,315.800032 169.20941,315.8 168.847787,315.8 Z M466.242299,315.8 L394.241522,315.8 L393.052012,315.800064 L390.686806,315.800576 C352.603052,315.812923 322.132798,316.021846 322.132798,316.230769 C322.132798,316.526544 326.204106,323.219487 330.957249,330.80164 L331.397839,331.503897 C331.692725,331.973537 331.989798,332.445903 332.288268,332.919712 L332.730679,333.621451 C333.691035,335.143498 334.661742,336.673855 335.616799,338.17027 L336.056388,338.858359 C336.567725,339.657959 337.073364,340.445833 337.569247,341.215385 L342.642765,349.076923 L487.292001,349.076923 L481.786694,340.138462 C478.656226,335.292308 473.906549,327.861538 471.20787,323.553846 L466.242299,315.8 Z M494.848304,262.923077 L413.615075,262.923958 C358.385049,262.943043 342.620096,263.275231 341.887134,264.215385 C341.266168,265.0255 337.326735,271.71884 333.127266,278.986111 L332.699424,279.726927 C332.628008,279.850657 332.556546,279.974501 332.485055,280.098431 L332.055864,280.842856 L332.055864,280.842856 L331.483724,281.836538 C331.138567,282.436455 330.79433,283.035594 330.452694,283.63104 L330.044086,284.343618 C325.836922,291.684749 322.132798,298.27893 322.132798,298.569231 C322.132798,298.778154 354.126565,298.987077 394.075099,298.999424 L397.803779,299 L399.048405,299.000065 L401.524188,299.000579 C437.699234,299.011866 467.732606,299.187445 473.307121,299.453926 L473.649085,299.472235 C474.003324,299.493758 474.200166,299.515846 474.230391,299.538462 C474.66218,299.861538 480.275434,309.123077 486.644318,320.323077 C493.013202,331.415385 498.734403,340.676923 499.166192,341 C499.338908,341.107692 500.271571,339.875692 501.654159,337.818338 L502.082123,337.176886 C504.06591,334.183556 506.813182,329.779758 509.561162,325.230955 L510.171526,324.218237 L510.394358,323.847331 L510.394358,323.847331 L511.060472,322.734766 C515.706936,314.953966 519.950264,307.423146 520,306.430769 C520,305.461538 503.160238,275.846154 497.439037,266.907692 L494.848304,262.923077 Z M243.547243,124 L222.497541,124 C206.953145,124 201.231944,124.323077 200.476314,125.292308 C199.504789,126.476923 194.647165,134.553846 178.563034,161.8 L175.540513,166.753846 L210.407455,225.338462 C229.622055,257.538462 247.001553,286.723077 249.160497,290.061538 L252.938649,296.307692 L273.556562,296.307692 C284.78307,296.307692 294.066529,295.876923 294.066529,295.446154 C294.066529,294.907692 277.442661,266.692308 257.256536,232.661538 C239.397753,202.714462 224.046799,176.770437 220.251921,170.167827 L220.011193,169.7478 C219.640179,169.098308 219.421046,168.703077 219.367072,168.584615 C218.395548,166.646154 220.014755,163.307692 229.406161,147.584615 L229.651042,147.165978 L230.13947,146.331964 C233.023286,141.411496 235.790272,136.756624 237.939875,133.163963 L238.302237,132.558632 C240.260939,129.288177 241.645372,127.002474 242.035982,126.369231 L243.547243,124 Z M214.725343,262.923077 L122.97023,262.923077 L113.254983,278.753846 C107.857624,287.476923 103.431789,294.907692 103.213558,295.338462 C103.004271,295.760615 131.406346,296.182769 166.578188,296.199487 L171.98576,296.199134 C206.764508,296.180518 234.695573,295.864 234.695573,295.446154 C234.695573,295.123077 233.508154,293.076923 232.212788,291.030769 C231.021295,289.202032 227.573057,283.724446 224.048468,278.09159 L223.343178,276.963984 L222.873768,276.213013 C222.639459,275.838064 222.405887,275.464151 222.173699,275.092308 L214.725343,262.923077 Z M256.285012,131.538462 C255.96117,131.538462 251.427388,138.646154 246.35387,147.369231 C241.172405,156.2 236.638623,164.169231 236.314781,165.138462 C236.185245,165.422769 236.41012,166.252948 236.992393,167.633463 L237.145408,167.99006 C237.493082,168.787539 237.94569,169.746598 238.503706,170.867946 L238.768738,171.397018 C241.448523,176.712918 246.300976,185.373846 253.370437,197.446154 L253.95861,198.452122 C263.544633,214.84824 272.06905,229.469538 273.232721,231.369231 C276.011281,236.226154 279.171241,241.67728 282.416049,247.229525 L283.302878,248.74591 L284.192577,250.265087 L285.268271,252.099129 C290.110397,260.348321 294.948998,268.503979 298.820394,274.963763 L299.864291,276.703522 C303.935493,283.480074 306.717939,288.006769 306.912244,288.123077 C307.344033,288.446154 312.201657,280.907692 317.706963,271.430769 C326.66658,256.030769 327.638105,253.876923 326.66658,251.507692 C325.91095,250.107692 314.468548,230.184615 300.975149,207.246154 C299.636604,204.941538 298.277549,202.603538 296.910074,200.252615 L296.088675,198.840674 C295.677567,198.134092 295.265919,197.426715 294.854057,196.719096 L294.030146,195.303698 C293.755478,194.8319 293.480812,194.360159 293.206244,193.888636 L292.382934,192.474893 C291.660679,191.234806 290.939778,189.997378 290.221996,188.765597 L289.505319,187.53581 C279.72674,170.75747 270.640789,155.220096 266.755889,148.553846 C261.250582,139.184615 256.608853,131.538462 256.285012,131.538462 Z M420.904478,131.538462 C420.580637,131.538462 419.285271,133.369231 417.881957,135.523077 C416.686542,137.449573 413.376161,143.283423 410.019362,149.363292 L409.362578,150.554955 C408.998007,151.217606 408.634481,151.880342 408.274657,152.538462 C407.975726,153.085207 407.674241,153.637051 407.371674,154.191198 L406.917198,155.023797 C403.429489,161.414952 399.896294,167.926036 398.55941,170.307692 C393.593839,179.138462 359.590474,240.738462 357.107688,245.261538 L354.73285,249.676923 L376.46298,249.676312 C392.681113,249.662837 395.35014,249.416308 396.292519,247.953846 C396.344333,247.867692 396.395284,247.782917 396.446864,247.696825 L396.524892,247.566363 L396.600098,247.440122 C397.848404,245.340217 400.197875,241.155662 421.876003,201.969231 L440.874709,167.4 L436.98861,160.507692 C434.829666,156.738462 432.670722,152.646154 432.130986,151.461538 C431.59125,150.276923 430.07999,147.584615 428.784623,145.538462 C427.597204,143.492308 425.330313,139.507692 423.927,136.6 C422.523686,133.8 421.120373,131.538462 420.904478,131.538462 Z M407.626974,124 L366.930883,124 L364.124256,129.061538 C360.88584,135.2 347.0686,160.076923 332.495729,186.353846 C322.240746,204.876923 321.161274,207.676923 323.104323,209.723077 C323.752006,210.261538 325.803003,213.815385 327.853999,217.692308 L328.26936,218.474606 L328.477807,218.86627 L328.477807,218.86627 L328.895929,219.650084 C329.105338,220.042044 329.315209,220.433975 329.525266,220.825388 L329.945547,221.607378 L330.365836,222.387116 L330.785644,223.163734 C331.065248,223.680246 331.344205,224.194098 331.621864,224.70413 L332.037298,225.466168 C336.594569,233.813887 340.709757,240.963864 341.455346,241.707692 C341.824525,242.076 345.841197,235.621408 351.746147,225.315551 L352.374619,224.216628 C356.715797,216.611874 362.002014,207.068462 367.578566,196.692308 C368.896526,194.062612 374.729921,183.651943 381.069275,172.174604 L381.577426,171.254269 L382.087281,170.330147 C382.257465,170.021559 382.427857,169.712468 382.598381,169.403001 L383.366371,168.008285 L383.878592,167.076923 C384.662629,165.671255 385.456235,164.246495 386.251982,162.816082 L386.849077,161.742423 C387.048165,161.384323 387.247271,161.02608 387.446279,160.667904 L388.04289,159.593786 L388.638215,158.521327 C394.582707,147.809248 400.229751,137.535223 402.445509,133.369231 L407.626974,124 Z" id="Combined-Shape" fill="#181B1D" fill-rule="nonzero"></path>
    </g>
</svg>